<?xml version="1.0" standalone="no"?>
<!DOCTYPE svg PUBLIC "-//W3C//DTD SVG 20010904//EN"
 "http://www.w3.org/TR/2001/REC-SVG-20010904/DTD/svg10.dtd">
<svg version="1.0" xmlns="http://www.w3.org/2000/svg"
 width="256.000000pt" height="256.000000pt" viewBox="0 0 256.000000 256.000000"
 preserveAspectRatio="xMidYMid meet">
<metadata>
Created by potrace 1.14, written by Peter Selinger 2001-2017
</metadata>
<g transform="translate(0.000000,256.000000) scale(0.100000,-0.100000)"
fill="#000000" stroke="none">
<path d="M1246 2061 c-9 -10 -16 -20 -16 -24 0 -4 -19 -39 -42 -79 -24 -40
-50 -86 -58 -103 -18 -36 -41 -56 -57 -50 -7 2 -13 0 -13 -5 0 -9 -39 -26 -52
-22 -5 1 -8 -3 -8 -9 0 -5 -4 -8 -9 -4 -5 3 -12 1 -16 -5 -6 -10 -55 -10 -55
0 0 3 -16 6 -35 7 l-35 2 0 -53 c0 -50 -17 -86 -33 -70 -4 4 -4 -3 -2 -16 3
-16 0 -20 -11 -16 -9 3 -12 1 -9 -4 3 -6 1 -10 -5 -10 -6 0 -9 -3 -7 -7 7 -11
-15 -28 -33 -28 -8 0 -13 -7 -12 -15 2 -8 1 -12 -3 -9 -3 4 -29 1 -57 -7 -28
-7 -55 -11 -60 -8 -4 3 -8 1 -8 -3 0 -8 -23 -13 -67 -16 -14 0 -18 -23 -5 -29
4 -1 30 -31 57 -66 28 -35 64 -82 82 -104 25 -31 32 -49 32 -81 0 -23 2 -58 5
-77 3 -26 -2 -45 -20 -72 -30 -47 -30 -52 2 -66 16 -8 22 -17 18 -25 -5 -8 -2
-8 9 2 14 11 18 11 23 -3 3 -9 10 -14 14 -11 4 3 15 -6 24 -20 9 -14 13 -25 9
-25 -5 0 -1 -5 7 -10 12 -7 14 -32 12 -132 -2 -68 -4 -134 -5 -148 -1 -19 3
-26 19 -28 12 -2 28 3 35 10 8 7 21 14 29 16 8 2 40 15 70 29 30 14 63 27 72
28 9 2 25 8 35 13 20 10 31 9 104 -8 32 -8 50 -18 54 -31 4 -11 10 -17 15 -14
5 3 16 -2 24 -11 15 -14 16 -14 16 1 0 9 5 13 10 10 6 -3 13 1 16 9 3 9 10 13
15 10 5 -3 9 -2 9 3 0 15 63 36 104 36 29 0 72 -16 141 -50 55 -28 112 -53
127 -57 26 -6 26 -5 23 39 -1 25 1 42 6 40 4 -3 2 7 -6 22 -17 32 -20 57 -5
48 6 -3 10 -2 10 3 0 6 -7 13 -16 16 -13 5 -14 9 -5 20 7 8 8 17 3 20 -17 10
-7 84 15 110 12 13 20 26 18 28 -8 7 65 50 88 52 20 1 24 6 22 31 -1 17 -6 29
-13 28 -7 -2 -11 0 -10 5 1 4 -3 17 -10 29 -6 12 -10 28 -7 35 2 7 6 44 9 82
3 52 9 73 22 83 10 7 14 13 9 13 -5 0 1 7 13 16 12 8 22 20 22 25 0 5 9 20 21
32 30 32 79 104 79 116 0 10 -20 15 -47 12 -7 -1 -13 2 -13 6 0 5 -9 9 -21 10
-11 1 -46 7 -77 14 -31 7 -59 13 -62 13 -17 2 -51 46 -44 58 4 7 4 10 -1 6
-13 -12 -36 20 -40 59 -2 21 -5 39 -6 41 -1 1 -3 11 -4 22 -1 11 -3 24 -4 29
0 5 -20 4 -45 -1 -46 -10 -119 3 -131 22 -3 6 -15 10 -27 10 -22 0 -91 68 -82
82 3 4 0 8 -5 8 -6 0 -11 4 -11 9 0 12 -79 152 -95 168 -10 10 -16 9 -29 -6z"/>
</g>
</svg>
